<svg width="229" height="37" viewBox="0 0 229 37" fill="none" xmlns="http://www.w3.org/2000/svg">
<path d="M59.4135 12.661C61.4704 12.661 63.2202 13.3548 64.6629 14.7424C66.1199 16.1161 66.8484 17.8121 66.8484 19.8305C66.8484 21.8489 66.1199 23.5519 64.6629 24.9396C63.2202 26.3132 61.4704 27 59.4135 27C57.3423 27 55.5853 26.3132 54.1426 24.9396C52.7142 23.5519 52 21.8489 52 19.8305C52 17.8121 52.7142 16.1161 54.1426 14.7424C55.5853 13.3548 57.3423 12.661 59.4135 12.661ZM59.4349 14.7004C57.9636 14.7004 56.7495 15.184 55.7924 16.1511C54.8354 17.1183 54.3569 18.3377 54.3569 19.8095C54.3569 21.2952 54.8354 22.5287 55.7924 23.5099C56.7495 24.477 57.9636 24.9606 59.4349 24.9606C60.8919 24.9606 62.0989 24.477 63.0559 23.5099C64.0272 22.5287 64.5129 21.2952 64.5129 19.8095C64.5129 18.3517 64.0272 17.1393 63.0559 16.1721C62.0846 15.191 60.8776 14.7004 59.4349 14.7004ZM71.6751 11V26.7687H69.4254V11H71.6751ZM78.9779 16.2142C80.2778 16.2142 81.3205 16.5856 82.1061 17.3285C82.8918 18.0714 83.2846 19.1367 83.2846 20.5243V26.7687H81.1848V25.6124C80.3992 26.5375 79.2779 27 77.8209 27C76.721 27 75.8354 26.7267 75.164 26.18C74.4927 25.6334 74.157 24.9115 74.157 24.0145C74.157 23.1174 74.507 22.4025 75.2069 21.8699C75.9068 21.3373 76.8496 21.071 78.0352 21.071H81.0134V20.3982C81.0134 19.6833 80.8134 19.1367 80.4135 18.7582C80.0278 18.3798 79.4778 18.1905 78.7636 18.1905C77.7066 18.1905 76.7353 18.7021 75.8497 19.7254L74.5427 18.4218C75.5997 16.9501 77.0781 16.2142 78.9779 16.2142ZM78.2923 25.297C79.0493 25.297 79.6921 25.0657 80.2206 24.6032C80.7491 24.1406 81.0134 23.5589 81.0134 22.8581V22.6689H78.3137C77.071 22.6689 76.4496 23.0894 76.4496 23.9304C76.4496 24.3649 76.621 24.7013 76.9638 24.9396C77.3067 25.1778 77.7495 25.297 78.2923 25.297ZM99.86 16.4455H102.26L97.5888 27H96.8174L93.5178 20.1248L90.2182 27H89.4468L84.7759 16.4455H87.1757L89.9396 23.1945L93.1321 16.2142H93.9035L97.1388 23.1104L99.86 16.4455ZM107.916 16.2142C109.216 16.2142 110.258 16.5856 111.044 17.3285C111.83 18.0714 112.223 19.1367 112.223 20.5243V26.7687H110.123V25.6124C109.337 26.5375 108.216 27 106.759 27C105.659 27 104.773 26.7267 104.102 26.18C103.431 25.6334 103.095 24.9115 103.095 24.0145C103.095 23.1174 103.445 22.4025 104.145 21.8699C104.845 21.3373 105.788 21.071 106.973 21.071H109.951V20.3982C109.951 19.6833 109.751 19.1367 109.351 18.7582C108.966 18.3798 108.416 18.1905 107.702 18.1905C106.645 18.1905 105.673 18.7021 104.788 19.7254L103.481 18.4218C104.538 16.9501 106.016 16.2142 107.916 16.2142ZM107.23 25.297C107.987 25.297 108.63 25.0657 109.159 24.6032C109.687 24.1406 109.951 23.5589 109.951 22.8581V22.6689H107.252C106.009 22.6689 105.388 23.0894 105.388 23.9304C105.388 24.3649 105.559 24.7013 105.902 24.9396C106.245 25.1778 106.687 25.297 107.23 25.297ZM117.603 11V26.7687H115.354V11H117.603ZM130.498 20.9448C130.498 21.3793 130.441 21.8419 130.327 22.3325H122.485C122.628 23.1875 123.006 23.8533 123.621 24.3298C124.235 24.8064 124.999 25.0447 125.913 25.0447C127.013 25.0447 128.034 24.6382 128.977 23.8252L130.048 25.339C128.849 26.4463 127.449 27 125.849 27C124.22 27 122.871 26.4884 121.799 25.4652C120.728 24.4279 120.192 23.1454 120.192 21.6176C120.192 20.1038 120.714 18.8283 121.756 17.7911C122.813 16.7398 124.106 16.2142 125.635 16.2142C127.034 16.2142 128.191 16.6627 129.106 17.5598C130.034 18.4569 130.498 19.5852 130.498 20.9448ZM125.549 18.0854C124.806 18.0854 124.156 18.3167 123.599 18.7792C123.056 19.2278 122.699 19.8375 122.528 20.6084H128.249C128.234 19.8375 127.97 19.2278 127.456 18.7792C126.942 18.3167 126.306 18.0854 125.549 18.0854ZM147.223 19.1997C148.066 19.4661 148.716 19.9076 149.173 20.5243C149.645 21.141 149.88 21.8769 149.88 22.7319C149.88 23.9093 149.459 24.8765 148.616 25.6334C147.773 26.3903 146.666 26.7687 145.295 26.7687H140.303H139.231V12.8922H141.46H144.181C145.452 12.8922 146.473 13.2357 147.245 13.9225C148.03 14.6093 148.423 15.4993 148.423 16.5926C148.423 17.6719 148.023 18.541 147.223 19.1997ZM143.967 14.8476H141.46V18.59H143.967C144.667 18.59 145.202 18.4218 145.574 18.0854C145.959 17.735 146.152 17.2724 146.152 16.6978C146.152 16.1231 145.959 15.6746 145.574 15.3522C145.202 15.0158 144.667 14.8476 143.967 14.8476ZM145.102 24.8134C145.888 24.8134 146.495 24.6242 146.923 24.2457C147.366 23.8533 147.588 23.3276 147.588 22.6689C147.588 22.0101 147.366 21.4845 146.923 21.092C146.495 20.6995 145.888 20.5033 145.102 20.5033H141.46V24.8134H145.102ZM156.376 16.2142C157.676 16.2142 158.719 16.5856 159.504 17.3285C160.29 18.0714 160.683 19.1367 160.683 20.5243V26.7687H158.583V25.6124C157.797 26.5375 156.676 27 155.219 27C154.119 27 153.233 26.7267 152.562 26.18C151.891 25.6334 151.555 24.9115 151.555 24.0145C151.555 23.1174 151.905 22.4025 152.605 21.8699C153.305 21.3373 154.248 21.071 155.433 21.071H158.411V20.3982C158.411 19.6833 158.211 19.1367 157.811 18.7582C157.426 18.3798 156.876 18.1905 156.162 18.1905C155.105 18.1905 154.133 18.7021 153.248 19.7254L151.941 18.4218C152.998 16.9501 154.476 16.2142 156.376 16.2142ZM155.69 25.297C156.447 25.297 157.09 25.0657 157.619 24.6032C158.147 24.1406 158.411 23.5589 158.411 22.8581V22.6689H155.712C154.469 22.6689 153.848 23.0894 153.848 23.9304C153.848 24.3649 154.019 24.7013 154.362 24.9396C154.705 25.1778 155.147 25.297 155.69 25.297ZM171.805 11H174.077V26.7687H171.977V25.297C171.163 26.4323 169.934 27 168.292 27C166.806 27 165.578 26.4884 164.606 25.4652C163.635 24.442 163.149 23.1594 163.149 21.6176C163.149 20.0758 163.635 18.7933 164.606 17.77C165.578 16.7328 166.806 16.2142 168.292 16.2142C169.806 16.2142 170.977 16.7118 171.805 17.707V11ZM168.677 24.9816C169.549 24.9816 170.291 24.7013 170.906 24.1406C171.534 23.5659 171.848 22.7249 171.848 21.6176C171.848 20.5243 171.534 19.6903 170.906 19.1156C170.277 18.5269 169.534 18.2326 168.677 18.2326C167.749 18.2326 166.977 18.548 166.363 19.1787C165.749 19.8095 165.442 20.6154 165.442 21.5966C165.442 22.5918 165.749 23.4047 166.363 24.0355C166.977 24.6662 167.749 24.9816 168.677 24.9816ZM181.38 16.2142C182.68 16.2142 183.723 16.5856 184.509 17.3285C185.294 18.0714 185.687 19.1367 185.687 20.5243V26.7687H183.587V25.6124C182.802 26.5375 181.68 27 180.223 27C179.123 27 178.238 26.7267 177.566 26.18C176.895 25.6334 176.559 24.9115 176.559 24.0145C176.559 23.1174 176.909 22.4025 177.609 21.8699C178.309 21.3373 179.252 21.071 180.438 21.071H183.416V20.3982C183.416 19.6833 183.216 19.1367 182.816 18.7582C182.43 18.3798 181.88 18.1905 181.166 18.1905C180.109 18.1905 179.138 18.7021 178.252 19.7254L176.945 18.4218C178.002 16.9501 179.481 16.2142 181.38 16.2142ZM180.695 25.297C181.452 25.297 182.094 25.0657 182.623 24.6032C183.152 24.1406 183.416 23.5589 183.416 22.8581V22.6689H180.716C179.473 22.6689 178.852 23.0894 178.852 23.9304C178.852 24.3649 179.023 24.7013 179.366 24.9396C179.709 25.1778 180.152 25.297 180.695 25.297ZM193.982 16.3403C194.296 16.3403 194.582 16.3754 194.839 16.4455V18.4008H194.153C193.267 18.4008 192.532 18.6531 191.946 19.1577C191.36 19.6483 191.068 20.3491 191.068 21.2602V26.7687H188.818V16.4455H190.918V17.7911C191.66 16.8239 192.682 16.3403 193.982 16.3403ZM200.693 16.2142C201.993 16.2142 203.036 16.5856 203.822 17.3285C204.607 18.0714 205 19.1367 205 20.5243V26.7687H202.9V25.6124C202.115 26.5375 200.993 27 199.536 27C198.436 27 197.551 26.7267 196.879 26.18C196.208 25.6334 195.872 24.9115 195.872 24.0145C195.872 23.1174 196.222 22.4025 196.922 21.8699C197.622 21.3373 198.565 21.071 199.751 21.071H202.729V20.3982C202.729 19.6833 202.529 19.1367 202.129 18.7582C201.743 18.3798 201.193 18.1905 200.479 18.1905C199.422 18.1905 198.451 18.7021 197.565 19.7254L196.258 18.4218C197.315 16.9501 198.794 16.2142 200.693 16.2142ZM200.008 25.297C200.765 25.297 201.408 25.0657 201.936 24.6032C202.465 24.1406 202.729 23.5589 202.729 22.8581V22.6689H200.029C198.786 22.6689 198.165 23.0894 198.165 23.9304C198.165 24.3649 198.336 24.7013 198.679 24.9396C199.022 25.1778 199.465 25.297 200.008 25.297Z" fill="#27282C"/>
<path d="M213.622 20C214.646 20 215.51 20.352 216.214 21.056C216.95 21.76 217.318 22.656 217.318 23.744C217.318 24.8 216.966 25.68 216.262 26.384C215.558 27.088 214.678 27.44 213.622 27.44C212.566 27.44 211.67 27.088 210.934 26.384C210.198 25.68 209.83 24.8 209.83 23.744C209.83 22.688 210.198 21.808 210.934 21.104C211.67 20.368 212.566 20 213.622 20Z" fill="#FED100"/>
<path d="M24.2538 1.09787L7.47079 3.56415C3.34478 4.17047 0.49152 8.00677 1.09784 12.1328L3.56411 28.9157C4.17043 33.0417 8.00674 35.895 12.1327 35.2887L28.9157 32.8224C33.0417 32.2161 35.895 28.3798 35.2887 24.2538L32.8224 7.47082C32.2161 3.34482 28.3798 0.491553 24.2538 1.09787Z" fill="#FED100"/>
<path d="M9.86932 13.8681C11.0775 12.672 12.5454 12.074 14.2731 12.074C16.0007 12.074 17.4687 12.672 18.6768 13.8681C19.885 15.0521 20.4891 16.514 20.4891 18.2537C20.4891 19.9935 19.885 21.4614 18.6768 22.6575C17.4687 23.8415 16.0007 24.4335 14.2731 24.4335C12.5333 24.4335 11.0654 23.8415 9.86932 22.6575C8.67324 21.4614 8.0752 19.9935 8.0752 18.2537C8.0752 16.514 8.67324 15.0521 9.86932 13.8681ZM14.2912 13.3788C12.926 13.3788 11.7903 13.8439 10.8842 14.7742C9.99013 15.6924 9.54311 16.8462 9.54311 18.2356C9.54311 19.6371 9.99013 20.803 10.8842 21.7332C11.7903 22.6635 12.926 23.1287 14.2912 23.1287C15.6443 23.1287 16.7679 22.6635 17.662 21.7332C18.5681 20.803 19.0212 19.6371 19.0212 18.2356C19.0212 16.8583 18.5681 15.7045 17.662 14.7742C16.7679 13.8439 15.6443 13.3788 14.2912 13.3788Z" fill="white"/>
<path d="M26.5416 17.6557C27.2907 17.8732 27.8706 18.2598 28.2814 18.8155C28.6922 19.3713 28.8976 20.0297 28.8976 20.7909C28.8976 21.8057 28.5532 22.6333 27.8646 23.2736C27.188 23.914 26.2698 24.2341 25.11 24.2341H20.7968H20.1807V12.2733H21.5942H24.2945C25.3335 12.2733 26.1611 12.5572 26.7772 13.1251C27.3934 13.6929 27.7015 14.4178 27.7015 15.2998C27.7015 16.3025 27.3149 17.0878 26.5416 17.6557ZM24.1495 13.5419H21.5942V17.257H24.1495C24.8261 17.257 25.3456 17.0878 25.708 16.7496C26.0705 16.4113 26.2517 15.9582 26.2517 15.3904C26.2517 14.8225 26.0705 14.3755 25.708 14.0493C25.3456 13.711 24.8261 13.5419 24.1495 13.5419ZM24.965 22.9656C25.7503 22.9656 26.3604 22.7662 26.7954 22.3675C27.2303 21.9567 27.4478 21.4191 27.4478 20.7546C27.4478 20.0901 27.2303 19.5585 26.7954 19.1598C26.3604 18.7491 25.7503 18.5437 24.965 18.5437H21.5942V22.9656H24.965Z" fill="white"/>
</svg>
