<svg width="198" height="28" viewBox="0 0 198 28" fill="none" xmlns="http://www.w3.org/2000/svg">
<path d="M18.3544 0.830791L5.65378 2.69717C2.5314 3.156 0.372168 6.05915 0.831005 9.18153L2.69738 21.8821C3.15621 25.0045 6.05936 27.1638 9.18174 26.7049L21.8824 24.8385C25.0047 24.3797 27.164 21.4766 26.7051 18.3542L24.8388 5.65357C24.3799 2.53119 21.4768 0.371954 18.3544 0.830791Z" fill="#FEC557"/>
<path d="M7.46904 10.4948C8.38333 9.58966 9.49419 9.13708 10.8016 9.13708C12.1091 9.13708 13.2199 9.58966 14.1342 10.4948C15.0485 11.3908 15.5056 12.4971 15.5056 13.8137C15.5056 15.1302 15.0485 16.2411 14.1342 17.1462C13.2199 18.0422 12.1091 18.4902 10.8016 18.4902C9.48504 18.4902 8.37419 18.0422 7.46904 17.1462C6.5639 16.2411 6.11133 15.1302 6.11133 13.8137C6.11133 12.4971 6.5639 11.3908 7.46904 10.4948ZM10.8153 10.1245C9.78219 10.1245 8.92276 10.4765 8.23704 11.1805C7.56047 11.8754 7.22219 12.7485 7.22219 13.7999C7.22219 14.8605 7.56047 15.7428 8.23704 16.4468C8.92276 17.1508 9.78219 17.5028 10.8153 17.5028C11.8393 17.5028 12.6896 17.1508 13.3662 16.4468C14.0519 15.7428 14.3948 14.8605 14.3948 13.7999C14.3948 12.7577 14.0519 11.8845 13.3662 11.1805C12.6896 10.4765 11.8393 10.1245 10.8153 10.1245Z" fill="white"/>
<path d="M20.0862 13.3611C20.653 13.5257 21.0919 13.8182 21.4028 14.2388C21.7136 14.6594 21.869 15.1577 21.869 15.7337C21.869 16.5017 21.6085 17.128 21.0873 17.6125C20.5753 18.0971 19.8805 18.3394 19.0028 18.3394H15.7388H15.2725V9.28796H16.3422H18.3856C19.1719 9.28796 19.7982 9.50282 20.2645 9.93254C20.7308 10.3622 20.9639 10.9108 20.9639 11.5782C20.9639 12.3371 20.6713 12.9314 20.0862 13.3611ZM18.2759 10.248H16.3422V13.0594H18.2759C18.7879 13.0594 19.181 12.9314 19.4553 12.6754C19.7296 12.4194 19.8668 12.0765 19.8668 11.6468C19.8668 11.2171 19.7296 10.8788 19.4553 10.632C19.181 10.376 18.7879 10.248 18.2759 10.248ZM18.893 17.3794C19.4873 17.3794 19.949 17.2285 20.2782 16.9268C20.6073 16.616 20.7719 16.2091 20.7719 15.7063C20.7719 15.2034 20.6073 14.8011 20.2782 14.4994C19.949 14.1885 19.4873 14.0331 18.893 14.0331H16.3422V17.3794H18.893Z" fill="white"/>
<path d="M33.957 14.207C33.957 18.8164 37.5215 22.1855 41.9551 22.1855C46.3887 22.1855 50.041 18.7578 50.041 14.1387C50.041 9.56836 46.4668 6.11133 42.0234 6.11133C37.5898 6.11133 33.957 9.63672 33.957 14.207ZM36.5352 14.1484C36.5352 10.9551 38.918 8.40625 41.9941 8.40625C45.0605 8.40625 47.4531 10.9551 47.4531 14.1484C47.4531 17.3223 45.0605 19.8906 41.9941 19.8906C38.918 19.8906 36.5352 17.3223 36.5352 14.1484ZM54.9824 22V5.71094H52.5996V22H54.9824ZM66.6816 22C66.623 21.502 66.6035 20.9355 66.6035 20.2812V15.1934C66.6035 14.4707 66.5059 13.8555 66.2422 13.2891C65.5293 11.7363 64.0352 11.1016 62.2383 11.1016C61.457 11.1016 60.6855 11.2383 60.0703 11.5117C58.5859 12.166 57.7656 13.5137 57.6777 14.4121L59.8359 14.9004C60.0117 13.875 60.8711 13.1328 62.1699 13.1328C63.5762 13.1328 64.2695 13.9141 64.2695 14.7637C64.2695 15.2812 63.9961 15.6621 63.2734 15.6621H61.9551C60.0898 15.6621 57.5117 16.4434 57.5117 18.9238V19.041C57.5117 20.8867 59.0254 22.1855 61.1152 22.1855C62.1113 22.1855 63.4688 21.834 64.25 20.5352C64.25 20.916 64.2891 21.7363 64.3477 22H66.6816ZM64.25 17.6738C64.25 19.2852 63.2148 20.2812 61.5938 20.2812C60.5879 20.2812 59.8945 19.6953 59.8945 18.8262C59.8945 17.8203 61.0469 17.332 61.9453 17.332H64.25V17.6738ZM80.5488 18.875H80.5195L78.0781 11.3262H75.6758L73.2637 18.8555H73.2441L70.9883 11.3262H68.5078L71.9258 22H74.3574L76.8379 14.5H76.8867L79.3477 22H81.8086L85.2461 11.3262H82.8047L80.5488 18.875ZM95.4707 22C95.4121 21.502 95.3926 20.9355 95.3926 20.2812V15.1934C95.3926 14.4707 95.2949 13.8555 95.0312 13.2891C94.3184 11.7363 92.8242 11.1016 91.0273 11.1016C90.2461 11.1016 89.4746 11.2383 88.8594 11.5117C87.375 12.166 86.5547 13.5137 86.4668 14.4121L88.625 14.9004C88.8008 13.875 89.6602 13.1328 90.959 13.1328C92.3652 13.1328 93.0586 13.9141 93.0586 14.7637C93.0586 15.2812 92.7852 15.6621 92.0625 15.6621H90.7441C88.8789 15.6621 86.3008 16.4434 86.3008 18.9238V19.041C86.3008 20.8867 87.8145 22.1855 89.9043 22.1855C90.9004 22.1855 92.2578 21.834 93.0391 20.5352C93.0391 20.916 93.0781 21.7363 93.1367 22H95.4707ZM93.0391 17.6738C93.0391 19.2852 92.0039 20.2812 90.3828 20.2812C89.377 20.2812 88.6836 19.6953 88.6836 18.8262C88.6836 17.8203 89.8359 17.332 90.7344 17.332H93.0391V17.6738ZM100.842 22V5.71094H98.459V22H100.842ZM105.744 17.3516H113.859C113.889 17.1074 113.898 16.8633 113.898 16.6191C113.898 13.4062 112.014 11.1016 108.684 11.1016C105.588 11.1016 103.312 13.6113 103.312 16.6484C103.312 19.8125 105.764 22.1953 108.908 22.1953C111.027 22.1953 113.117 21.0137 113.723 18.9629L111.711 18.3477C111.281 19.6367 110.168 20.1445 108.879 20.1445C107.307 20.1445 105.803 18.9922 105.744 17.3516ZM108.703 13.1426C110.178 13.1426 111.398 14.0312 111.477 15.5645H105.871C106.086 14.0996 107.238 13.1426 108.703 13.1426ZM128.02 6.33594H122.023V22H128.205C131.955 22 133.762 20.1348 133.762 17.6152C133.762 16.3848 133.176 14.6074 130.793 13.8457C132.648 13.0059 133.059 11.2969 133.059 10.457C133.059 7.88867 131.008 6.33594 128.02 6.33594ZM127.561 12.9668H124.465V8.55273H127.688C129.787 8.55273 130.598 9.51953 130.598 10.7109C130.598 11.9219 129.689 12.9668 127.561 12.9668ZM128.244 19.7832H124.475V15.125H128.098C130.344 15.125 131.311 16.1309 131.311 17.4297C131.311 18.7871 130.285 19.7832 128.244 19.7832ZM144.826 22C144.768 21.502 144.748 20.9355 144.748 20.2812V15.1934C144.748 14.4707 144.65 13.8555 144.387 13.2891C143.674 11.7363 142.18 11.1016 140.383 11.1016C139.602 11.1016 138.83 11.2383 138.215 11.5117C136.73 12.166 135.91 13.5137 135.822 14.4121L137.98 14.9004C138.156 13.875 139.016 13.1328 140.314 13.1328C141.721 13.1328 142.414 13.9141 142.414 14.7637C142.414 15.2812 142.141 15.6621 141.418 15.6621H140.1C138.234 15.6621 135.656 16.4434 135.656 18.9238V19.041C135.656 20.8867 137.17 22.1855 139.26 22.1855C140.256 22.1855 141.613 21.834 142.395 20.5352C142.395 20.916 142.434 21.7363 142.492 22H144.826ZM142.395 17.6738C142.395 19.2852 141.359 20.2812 139.738 20.2812C138.732 20.2812 138.039 19.6953 138.039 18.8262C138.039 17.8203 139.191 17.332 140.09 17.332H142.395V17.6738ZM147.092 16.6484C147.092 19.5195 149.26 22.166 152.346 22.166C153.195 22.166 155.08 21.7168 155.92 20.3301V22H158.244V5.71094H155.861V12.8496C155.061 11.5801 153.342 11.1113 152.404 11.1113C149.064 11.1113 147.092 13.9531 147.092 16.6484ZM155.9 16.6484C155.9 18.4746 154.631 20.0078 152.697 20.0078C150.773 20.0078 149.494 18.4844 149.494 16.6484C149.494 14.793 150.764 13.2695 152.697 13.2695C154.631 13.2695 155.9 14.793 155.9 16.6484ZM169.943 22C169.885 21.502 169.865 20.9355 169.865 20.2812V15.1934C169.865 14.4707 169.768 13.8555 169.504 13.2891C168.791 11.7363 167.297 11.1016 165.5 11.1016C164.719 11.1016 163.947 11.2383 163.332 11.5117C161.848 12.166 161.027 13.5137 160.939 14.4121L163.098 14.9004C163.273 13.875 164.133 13.1328 165.432 13.1328C166.838 13.1328 167.531 13.9141 167.531 14.7637C167.531 15.2812 167.258 15.6621 166.535 15.6621H165.217C163.352 15.6621 160.773 16.4434 160.773 18.9238V19.041C160.773 20.8867 162.287 22.1855 164.377 22.1855C165.373 22.1855 166.73 21.834 167.512 20.5352C167.512 20.916 167.551 21.7363 167.609 22H169.943ZM167.512 17.6738C167.512 19.2852 166.477 20.2812 164.855 20.2812C163.85 20.2812 163.156 19.6953 163.156 18.8262C163.156 17.8203 164.309 17.332 165.207 17.332H167.512V17.6738ZM178.781 13.7285V11.2871C178.605 11.248 178.283 11.2285 178.195 11.2285C177.072 11.2285 175.91 11.8047 175.266 12.9668V11.3262H172.932V22H175.314V16.5703C175.314 14.7441 176.281 13.6699 178.107 13.6699C178.137 13.6699 178.586 13.6895 178.781 13.7285ZM189.104 22C189.045 21.502 189.025 20.9355 189.025 20.2812V15.1934C189.025 14.4707 188.928 13.8555 188.664 13.2891C187.951 11.7363 186.457 11.1016 184.66 11.1016C183.879 11.1016 183.107 11.2383 182.492 11.5117C181.008 12.166 180.188 13.5137 180.1 14.4121L182.258 14.9004C182.434 13.875 183.293 13.1328 184.592 13.1328C185.998 13.1328 186.691 13.9141 186.691 14.7637C186.691 15.2812 186.418 15.6621 185.695 15.6621H184.377C182.512 15.6621 179.934 16.4434 179.934 18.9238V19.041C179.934 20.8867 181.447 22.1855 183.537 22.1855C184.533 22.1855 185.891 21.834 186.672 20.5352C186.672 20.916 186.711 21.7363 186.77 22H189.104ZM186.672 17.6738C186.672 19.2852 185.637 20.2812 184.016 20.2812C183.01 20.2812 182.316 19.6953 182.316 18.8262C182.316 17.8203 183.469 17.332 184.367 17.332H186.672V17.6738Z" fill="#27282C"/>
<path d="M195.5 22C196.881 22 198 20.8807 198 19.5C198 18.1193 196.881 17 195.5 17C194.119 17 193 18.1193 193 19.5C193 20.8807 194.119 22 195.5 22Z" fill="#FEC557"/>
</svg>
