<svg width="198" height="28" viewBox="0 0 198 28" fill="none" xmlns="http://www.w3.org/2000/svg">
<path d="M18.3542 0.830786L5.65357 2.69716C2.53119 3.15599 0.371961 6.05914 0.830798 9.18152L2.69717 21.8821C3.156 25.0045 6.05915 27.1638 9.18153 26.7049L21.8822 24.8385C25.0045 24.3797 27.1638 21.4766 26.7049 18.3542L24.8386 5.65356C24.3797 2.53118 21.4766 0.371949 18.3542 0.830786Z" fill="#FED100"/>
<path d="M7.46855 10.4948C8.38284 9.58966 9.4937 9.13708 10.8011 9.13708C12.1086 9.13708 13.2194 9.58966 14.1337 10.4948C15.048 11.3908 15.5051 12.4971 15.5051 13.8137C15.5051 15.1302 15.048 16.2411 14.1337 17.1462C13.2194 18.0422 12.1086 18.4902 10.8011 18.4902C9.48455 18.4902 8.3737 18.0422 7.46855 17.1462C6.56341 16.2411 6.11084 15.1302 6.11084 13.8137C6.11084 12.4971 6.56341 11.3908 7.46855 10.4948ZM10.8148 10.1245C9.7817 10.1245 8.92227 10.4765 8.23655 11.1805C7.55998 11.8754 7.2217 12.7485 7.2217 13.7999C7.2217 14.8605 7.55998 15.7428 8.23655 16.4468C8.92227 17.1508 9.7817 17.5028 10.8148 17.5028C11.8388 17.5028 12.6891 17.1508 13.3657 16.4468C14.0514 15.7428 14.3943 14.8605 14.3943 13.7999C14.3943 12.7577 14.0514 11.8845 13.3657 11.1805C12.6891 10.4765 11.8388 10.1245 10.8148 10.1245Z" fill="white"/>
<path d="M20.0857 13.3611C20.6525 13.5257 21.0914 13.8182 21.4023 14.2388C21.7131 14.6594 21.8685 15.1577 21.8685 15.7337C21.8685 16.5017 21.608 17.128 21.0868 17.6125C20.5748 18.0971 19.88 18.3394 19.0023 18.3394H15.7383H15.272V9.28796H16.3417H18.3851C19.1714 9.28796 19.7977 9.50282 20.264 9.93254C20.7303 10.3622 20.9634 10.9108 20.9634 11.5782C20.9634 12.3371 20.6708 12.9314 20.0857 13.3611ZM18.2754 10.248H16.3417V13.0594H18.2754C18.7874 13.0594 19.1805 12.9314 19.4548 12.6754C19.7291 12.4194 19.8663 12.0765 19.8663 11.6468C19.8663 11.2171 19.7291 10.8788 19.4548 10.632C19.1805 10.376 18.7874 10.248 18.2754 10.248ZM18.8925 17.3794C19.4868 17.3794 19.9485 17.2285 20.2777 16.9268C20.6068 16.616 20.7714 16.2091 20.7714 15.7063C20.7714 15.2034 20.6068 14.8011 20.2777 14.4994C19.9485 14.1885 19.4868 14.0331 18.8925 14.0331H16.3417V17.3794H18.8925Z" fill="white"/>
<path d="M33.957 12.207C33.957 16.8164 37.5215 20.1855 41.9551 20.1855C46.3887 20.1855 50.041 16.7578 50.041 12.1387C50.041 7.56836 46.4668 4.11133 42.0234 4.11133C37.5898 4.11133 33.957 7.63672 33.957 12.207ZM36.5352 12.1484C36.5352 8.95508 38.918 6.40625 41.9941 6.40625C45.0605 6.40625 47.4531 8.95508 47.4531 12.1484C47.4531 15.3223 45.0605 17.8906 41.9941 17.8906C38.918 17.8906 36.5352 15.3223 36.5352 12.1484ZM54.9824 20V3.71094H52.5996V20H54.9824ZM66.6816 20C66.623 19.502 66.6035 18.9355 66.6035 18.2812V13.1934C66.6035 12.4707 66.5059 11.8555 66.2422 11.2891C65.5293 9.73633 64.0352 9.10156 62.2383 9.10156C61.457 9.10156 60.6855 9.23828 60.0703 9.51172C58.5859 10.166 57.7656 11.5137 57.6777 12.4121L59.8359 12.9004C60.0117 11.875 60.8711 11.1328 62.1699 11.1328C63.5762 11.1328 64.2695 11.9141 64.2695 12.7637C64.2695 13.2812 63.9961 13.6621 63.2734 13.6621H61.9551C60.0898 13.6621 57.5117 14.4434 57.5117 16.9238V17.041C57.5117 18.8867 59.0254 20.1855 61.1152 20.1855C62.1113 20.1855 63.4688 19.834 64.25 18.5352C64.25 18.916 64.2891 19.7363 64.3477 20H66.6816ZM64.25 15.6738C64.25 17.2852 63.2148 18.2812 61.5938 18.2812C60.5879 18.2812 59.8945 17.6953 59.8945 16.8262C59.8945 15.8203 61.0469 15.332 61.9453 15.332H64.25V15.6738ZM80.5488 16.875H80.5195L78.0781 9.32617H75.6758L73.2637 16.8555H73.2441L70.9883 9.32617H68.5078L71.9258 20H74.3574L76.8379 12.5H76.8867L79.3477 20H81.8086L85.2461 9.32617H82.8047L80.5488 16.875ZM95.4707 20C95.4121 19.502 95.3926 18.9355 95.3926 18.2812V13.1934C95.3926 12.4707 95.2949 11.8555 95.0312 11.2891C94.3184 9.73633 92.8242 9.10156 91.0273 9.10156C90.2461 9.10156 89.4746 9.23828 88.8594 9.51172C87.375 10.166 86.5547 11.5137 86.4668 12.4121L88.625 12.9004C88.8008 11.875 89.6602 11.1328 90.959 11.1328C92.3652 11.1328 93.0586 11.9141 93.0586 12.7637C93.0586 13.2812 92.7852 13.6621 92.0625 13.6621H90.7441C88.8789 13.6621 86.3008 14.4434 86.3008 16.9238V17.041C86.3008 18.8867 87.8145 20.1855 89.9043 20.1855C90.9004 20.1855 92.2578 19.834 93.0391 18.5352C93.0391 18.916 93.0781 19.7363 93.1367 20H95.4707ZM93.0391 15.6738C93.0391 17.2852 92.0039 18.2812 90.3828 18.2812C89.377 18.2812 88.6836 17.6953 88.6836 16.8262C88.6836 15.8203 89.8359 15.332 90.7344 15.332H93.0391V15.6738ZM100.842 20V3.71094H98.459V20H100.842ZM105.744 15.3516H113.859C113.889 15.1074 113.898 14.8633 113.898 14.6191C113.898 11.4062 112.014 9.10156 108.684 9.10156C105.588 9.10156 103.312 11.6113 103.312 14.6484C103.312 17.8125 105.764 20.1953 108.908 20.1953C111.027 20.1953 113.117 19.0137 113.723 16.9629L111.711 16.3477C111.281 17.6367 110.168 18.1445 108.879 18.1445C107.307 18.1445 105.803 16.9922 105.744 15.3516ZM108.703 11.1426C110.178 11.1426 111.398 12.0312 111.477 13.5645H105.871C106.086 12.0996 107.238 11.1426 108.703 11.1426ZM128.02 4.33594H122.023V20H128.205C131.955 20 133.762 18.1348 133.762 15.6152C133.762 14.3848 133.176 12.6074 130.793 11.8457C132.648 11.0059 133.059 9.29688 133.059 8.45703C133.059 5.88867 131.008 4.33594 128.02 4.33594ZM127.561 10.9668H124.465V6.55273H127.688C129.787 6.55273 130.598 7.51953 130.598 8.71094C130.598 9.92188 129.689 10.9668 127.561 10.9668ZM128.244 17.7832H124.475V13.125H128.098C130.344 13.125 131.311 14.1309 131.311 15.4297C131.311 16.7871 130.285 17.7832 128.244 17.7832ZM144.826 20C144.768 19.502 144.748 18.9355 144.748 18.2812V13.1934C144.748 12.4707 144.65 11.8555 144.387 11.2891C143.674 9.73633 142.18 9.10156 140.383 9.10156C139.602 9.10156 138.83 9.23828 138.215 9.51172C136.73 10.166 135.91 11.5137 135.822 12.4121L137.98 12.9004C138.156 11.875 139.016 11.1328 140.314 11.1328C141.721 11.1328 142.414 11.9141 142.414 12.7637C142.414 13.2812 142.141 13.6621 141.418 13.6621H140.1C138.234 13.6621 135.656 14.4434 135.656 16.9238V17.041C135.656 18.8867 137.17 20.1855 139.26 20.1855C140.256 20.1855 141.613 19.834 142.395 18.5352C142.395 18.916 142.434 19.7363 142.492 20H144.826ZM142.395 15.6738C142.395 17.2852 141.359 18.2812 139.738 18.2812C138.732 18.2812 138.039 17.6953 138.039 16.8262C138.039 15.8203 139.191 15.332 140.09 15.332H142.395V15.6738ZM147.092 14.6484C147.092 17.5195 149.26 20.166 152.346 20.166C153.195 20.166 155.08 19.7168 155.92 18.3301V20H158.244V3.71094H155.861V10.8496C155.061 9.58008 153.342 9.11133 152.404 9.11133C149.064 9.11133 147.092 11.9531 147.092 14.6484ZM155.9 14.6484C155.9 16.4746 154.631 18.0078 152.697 18.0078C150.773 18.0078 149.494 16.4844 149.494 14.6484C149.494 12.793 150.764 11.2695 152.697 11.2695C154.631 11.2695 155.9 12.793 155.9 14.6484ZM169.943 20C169.885 19.502 169.865 18.9355 169.865 18.2812V13.1934C169.865 12.4707 169.768 11.8555 169.504 11.2891C168.791 9.73633 167.297 9.10156 165.5 9.10156C164.719 9.10156 163.947 9.23828 163.332 9.51172C161.848 10.166 161.027 11.5137 160.939 12.4121L163.098 12.9004C163.273 11.875 164.133 11.1328 165.432 11.1328C166.838 11.1328 167.531 11.9141 167.531 12.7637C167.531 13.2812 167.258 13.6621 166.535 13.6621H165.217C163.352 13.6621 160.773 14.4434 160.773 16.9238V17.041C160.773 18.8867 162.287 20.1855 164.377 20.1855C165.373 20.1855 166.73 19.834 167.512 18.5352C167.512 18.916 167.551 19.7363 167.609 20H169.943ZM167.512 15.6738C167.512 17.2852 166.477 18.2812 164.855 18.2812C163.85 18.2812 163.156 17.6953 163.156 16.8262C163.156 15.8203 164.309 15.332 165.207 15.332H167.512V15.6738ZM178.781 11.7285V9.28711C178.605 9.24805 178.283 9.22852 178.195 9.22852C177.072 9.22852 175.91 9.80469 175.266 10.9668V9.32617H172.932V20H175.314V14.5703C175.314 12.7441 176.281 11.6699 178.107 11.6699C178.137 11.6699 178.586 11.6895 178.781 11.7285ZM189.104 20C189.045 19.502 189.025 18.9355 189.025 18.2812V13.1934C189.025 12.4707 188.928 11.8555 188.664 11.2891C187.951 9.73633 186.457 9.10156 184.66 9.10156C183.879 9.10156 183.107 9.23828 182.492 9.51172C181.008 10.166 180.188 11.5137 180.1 12.4121L182.258 12.9004C182.434 11.875 183.293 11.1328 184.592 11.1328C185.998 11.1328 186.691 11.9141 186.691 12.7637C186.691 13.2812 186.418 13.6621 185.695 13.6621H184.377C182.512 13.6621 179.934 14.4434 179.934 16.9238V17.041C179.934 18.8867 181.447 20.1855 183.537 20.1855C184.533 20.1855 185.891 19.834 186.672 18.5352C186.672 18.916 186.711 19.7363 186.77 20H189.104ZM186.672 15.6738C186.672 17.2852 185.637 18.2812 184.016 18.2812C183.01 18.2812 182.316 17.6953 182.316 16.8262C182.316 15.8203 183.469 15.332 184.367 15.332H186.672V15.6738Z" fill="#27282C"/>
<circle cx="195.5" cy="17.5" r="2.5" fill="#FED100"/>
</svg>
