<svg width="37" height="37" viewBox="0 0 37 37" fill="none" xmlns="http://www.w3.org/2000/svg">
<path d="M24.2538 1.09786L7.47078 3.56414C3.34477 4.17046 0.491515 8.00676 1.09783 12.1328L3.5641 28.9157C4.17042 33.0417 8.00674 35.895 12.1327 35.2887L28.9157 32.8224C33.0417 32.2161 35.895 28.3798 35.2887 24.2538L32.8224 7.47081C32.2161 3.34481 28.3798 0.491547 24.2538 1.09786Z" fill="#FEC557"/>
<path d="M9.86932 13.8681C11.0775 12.672 12.5454 12.074 14.2731 12.074C16.0007 12.074 17.4687 12.672 18.6768 13.8681C19.885 15.0521 20.4891 16.514 20.4891 18.2537C20.4891 19.9935 19.885 21.4614 18.6768 22.6575C17.4687 23.8415 16.0007 24.4335 14.2731 24.4335C12.5333 24.4335 11.0654 23.8415 9.86932 22.6575C8.67324 21.4614 8.0752 19.9935 8.0752 18.2537C8.0752 16.514 8.67324 15.0521 9.86932 13.8681ZM14.2912 13.3788C12.926 13.3788 11.7903 13.8439 10.8842 14.7742C9.99013 15.6924 9.54311 16.8462 9.54311 18.2356C9.54311 19.6371 9.99013 20.803 10.8842 21.7332C11.7903 22.6635 12.926 23.1287 14.2912 23.1287C15.6443 23.1287 16.7679 22.6635 17.662 21.7332C18.5681 20.803 19.0212 19.6371 19.0212 18.2356C19.0212 16.8583 18.5681 15.7045 17.662 14.7742C16.7679 13.8439 15.6443 13.3788 14.2912 13.3788Z" fill="white"/>
<path d="M26.5416 17.6557C27.2907 17.8732 27.8706 18.2598 28.2814 18.8155C28.6922 19.3713 28.8976 20.0297 28.8976 20.7909C28.8976 21.8057 28.5532 22.6333 27.8646 23.2736C27.188 23.914 26.2698 24.2341 25.11 24.2341H20.7968H20.1807V12.2733H21.5942H24.2945C25.3335 12.2733 26.1611 12.5572 26.7772 13.1251C27.3934 13.6929 27.7015 14.4178 27.7015 15.2998C27.7015 16.3025 27.3149 17.0878 26.5416 17.6557ZM24.1495 13.5419H21.5942V17.257H24.1495C24.8261 17.257 25.3456 17.0878 25.708 16.7496C26.0705 16.4113 26.2517 15.9582 26.2517 15.3904C26.2517 14.8225 26.0705 14.3755 25.708 14.0493C25.3456 13.711 24.8261 13.5419 24.1495 13.5419ZM24.965 22.9656C25.7503 22.9656 26.3604 22.7662 26.7954 22.3675C27.2303 21.9567 27.4478 21.4191 27.4478 20.7546C27.4478 20.0901 27.2303 19.5585 26.7954 19.1598C26.3604 18.7491 25.7503 18.5437 24.965 18.5437H21.5942V22.9656H24.965Z" fill="white"/>
</svg>
