<svg width="205" height="28" viewBox="0 0 205 28" fill="none" xmlns="http://www.w3.org/2000/svg">
<g clip-path="url(#clip0)">
<path d="M45.0751 8.43216C47.0035 8.43216 48.6439 9.08262 49.9965 10.3835C51.3624 11.6713 52.0453 13.2613 52.0453 15.1536C52.0453 17.0458 51.3624 18.6424 49.9965 19.9433C48.6439 21.2311 47.0035 21.875 45.0751 21.875C43.1334 21.875 41.4862 21.2311 40.1337 19.9433C38.7946 18.6424 38.125 17.0458 38.125 15.1536C38.125 13.2613 38.7946 11.6713 40.1337 10.3835C41.4862 9.08262 43.1334 8.43216 45.0751 8.43216ZM45.0952 10.3441C43.7159 10.3441 42.5776 10.7975 41.6804 11.7042C40.7832 12.6109 40.3346 13.7541 40.3346 15.1339C40.3346 16.5268 40.7832 17.6831 41.6804 18.603C42.5776 19.5097 43.7159 19.963 45.0952 19.963C46.4611 19.963 47.5927 19.5097 48.4899 18.603C49.4005 17.6831 49.8558 16.5268 49.8558 15.1339C49.8558 13.7672 49.4005 12.6306 48.4899 11.7239C47.5793 10.804 46.4477 10.3441 45.0952 10.3441ZM56.5704 6.875V21.6582H54.4613V6.875H56.5704ZM63.4168 11.7633C64.6354 11.7633 65.613 12.1115 66.3495 12.808C67.086 13.5044 67.4543 14.5031 67.4543 15.804V21.6582H65.4857V20.5741C64.7492 21.4414 63.698 21.875 62.3321 21.875C61.3009 21.875 60.4707 21.6188 59.8413 21.1063C59.2119 20.5938 58.8972 19.917 58.8972 19.0761C58.8972 18.2351 59.2253 17.5649 59.8815 17.0655C60.5376 16.5662 61.4215 16.3165 62.533 16.3165H65.3251V15.6858C65.3251 15.0156 65.1376 14.5031 64.7626 14.1483C64.4011 13.7935 63.8855 13.6161 63.2159 13.6161C62.225 13.6161 61.3143 14.0958 60.4841 15.055L59.2588 13.833C60.2497 12.4532 61.6357 11.7633 63.4168 11.7633ZM62.774 20.2784C63.4837 20.2784 64.0864 20.0616 64.5818 19.628C65.0773 19.1943 65.3251 18.649 65.3251 17.992V17.8146H62.7941C61.629 17.8146 61.0465 18.2088 61.0465 18.9972C61.0465 19.4046 61.2072 19.7199 61.5286 19.9433C61.85 20.1667 62.2651 20.2784 62.774 20.2784ZM82.9937 11.9801H85.2435L80.8645 21.875H80.1414L77.0479 15.4295L73.9545 21.875H73.2314L68.8524 11.9801H71.1022L73.6934 18.3073L76.6864 11.7633H77.4095L80.4427 18.2285L82.9937 11.9801ZM90.5461 11.7633C91.7647 11.7633 92.7423 12.1115 93.4788 12.808C94.2154 13.5044 94.5836 14.5031 94.5836 15.804V21.6582H92.6151V20.5741C91.8786 21.4414 90.8273 21.875 89.4614 21.875C88.4303 21.875 87.6 21.6188 86.9706 21.1063C86.3412 20.5938 86.0265 19.917 86.0265 19.0761C86.0265 18.2351 86.3546 17.5649 87.0108 17.0655C87.667 16.5662 88.5508 16.3165 89.6623 16.3165H92.4544V15.6858C92.4544 15.0156 92.2669 14.5031 91.8919 14.1483C91.5304 13.7935 91.0148 13.6161 90.3452 13.6161C89.3543 13.6161 88.4437 14.0958 87.6134 15.055L86.3881 13.833C87.3791 12.4532 88.7651 11.7633 90.5461 11.7633ZM89.9033 20.2784C90.6131 20.2784 91.2157 20.0616 91.7112 19.628C92.2066 19.1943 92.4544 18.649 92.4544 17.992V17.8146H89.9234C88.7584 17.8146 88.1758 18.2088 88.1758 18.9972C88.1758 19.4046 88.3365 19.7199 88.6579 19.9433C88.9793 20.1667 89.3945 20.2784 89.9033 20.2784ZM99.6281 6.875V21.6582H97.519V6.875H99.6281ZM111.717 16.1983C111.717 16.6056 111.664 17.0393 111.557 17.4992H104.205C104.339 18.3008 104.693 18.9249 105.269 19.3717C105.845 19.8185 106.562 20.0419 107.419 20.0419C108.45 20.0419 109.407 19.6608 110.291 18.8987L111.295 20.3178C110.171 21.3559 108.858 21.875 107.358 21.875C105.832 21.875 104.566 21.3954 103.562 20.4361C102.558 19.4637 102.055 18.2613 102.055 16.829C102.055 15.4098 102.544 14.214 103.522 13.2416C104.513 12.2561 105.725 11.7633 107.157 11.7633C108.47 11.7633 109.555 12.1838 110.412 13.0248C111.282 13.8658 111.717 14.9236 111.717 16.1983ZM107.077 13.5176C106.381 13.5176 105.771 13.7344 105.249 14.168C104.74 14.5885 104.406 15.1602 104.245 15.8829H109.608C109.595 15.1602 109.347 14.5885 108.865 14.168C108.383 13.7344 107.787 13.5176 107.077 13.5176ZM127.397 14.5623C128.187 14.8119 128.796 15.2259 129.225 15.804C129.667 16.3822 129.888 17.0721 129.888 17.8737C129.888 18.9775 129.493 19.8842 128.703 20.5938C127.912 21.3034 126.875 21.6582 125.589 21.6582H120.909H119.904V8.64898H121.993H124.545C125.736 8.64898 126.694 8.97093 127.417 9.61482C128.154 10.2587 128.522 11.0931 128.522 12.1181C128.522 13.1299 128.147 13.9446 127.397 14.5623ZM124.344 10.4821H121.993V13.9906H124.344C125 13.9906 125.502 13.833 125.85 13.5176C126.212 13.1891 126.393 12.7554 126.393 12.2167C126.393 11.6779 126.212 11.2574 125.85 10.9552C125.502 10.6398 125 10.4821 124.344 10.4821ZM125.408 19.8251C126.145 19.8251 126.714 19.6477 127.116 19.2929C127.531 18.9249 127.738 18.4322 127.738 17.8146C127.738 17.1969 127.531 16.7042 127.116 16.3362C126.714 15.9683 126.145 15.7843 125.408 15.7843H121.993V19.8251H125.408ZM135.977 11.7633C137.196 11.7633 138.174 12.1115 138.91 12.808C139.647 13.5044 140.015 14.5031 140.015 15.804V21.6582H138.046V20.5741C137.31 21.4414 136.259 21.875 134.893 21.875C133.862 21.875 133.031 21.6188 132.402 21.1063C131.773 20.5938 131.458 19.917 131.458 19.0761C131.458 18.2351 131.786 17.5649 132.442 17.0655C133.098 16.5662 133.982 16.3165 135.094 16.3165H137.886V15.6858C137.886 15.0156 137.698 14.5031 137.323 14.1483C136.962 13.7935 136.446 13.6161 135.777 13.6161C134.786 13.6161 133.875 14.0958 133.045 15.055L131.819 13.833C132.81 12.4532 134.196 11.7633 135.977 11.7633ZM135.335 20.2784C136.044 20.2784 136.647 20.0616 137.142 19.628C137.638 19.1943 137.886 18.649 137.886 17.992V17.8146H135.355C134.19 17.8146 133.607 18.2088 133.607 18.9972C133.607 19.4046 133.768 19.7199 134.089 19.9433C134.411 20.1667 134.826 20.2784 135.335 20.2784ZM150.443 6.875H152.572V21.6582H150.603V20.2784C149.84 21.3428 148.688 21.875 147.148 21.875C145.756 21.875 144.604 21.3954 143.693 20.4361C142.783 19.4768 142.327 18.2745 142.327 16.829C142.327 15.3835 142.783 14.1812 143.693 13.2219C144.604 12.2495 145.756 11.7633 147.148 11.7633C148.568 11.7633 149.666 12.2298 150.443 13.1628V6.875ZM147.51 19.9828C148.327 19.9828 149.023 19.7199 149.599 19.1943C150.188 18.6556 150.483 17.8671 150.483 16.829C150.483 15.804 150.188 15.0222 149.599 14.4834C149.01 13.9315 148.313 13.6556 147.51 13.6556C146.639 13.6556 145.916 13.9512 145.341 14.5425C144.765 15.1339 144.477 15.8895 144.477 16.8093C144.477 17.7423 144.765 18.5044 145.341 19.0958C145.916 19.6871 146.639 19.9828 147.51 19.9828ZM159.419 11.7633C160.638 11.7633 161.615 12.1115 162.352 12.808C163.088 13.5044 163.457 14.5031 163.457 15.804V21.6582H161.488V20.5741C160.751 21.4414 159.7 21.875 158.334 21.875C157.303 21.875 156.473 21.6188 155.844 21.1063C155.214 20.5938 154.899 19.917 154.899 19.0761C154.899 18.2351 155.228 17.5649 155.884 17.0655C156.54 16.5662 157.424 16.3165 158.535 16.3165H161.327V15.6858C161.327 15.0156 161.14 14.5031 160.765 14.1483C160.403 13.7935 159.888 13.6161 159.218 13.6161C158.227 13.6161 157.317 14.0958 156.486 15.055L155.261 13.833C156.252 12.4532 157.638 11.7633 159.419 11.7633ZM158.776 20.2784C159.486 20.2784 160.089 20.0616 160.584 19.628C161.08 19.1943 161.327 18.649 161.327 17.992V17.8146H158.796C157.631 17.8146 157.049 18.2088 157.049 18.9972C157.049 19.4046 157.209 19.7199 157.531 19.9433C157.852 20.1667 158.267 20.2784 158.776 20.2784ZM171.233 11.8816C171.527 11.8816 171.795 11.9144 172.036 11.9801V13.8132H171.393C170.563 13.8132 169.874 14.0498 169.324 14.5228C168.775 14.9828 168.501 15.6398 168.501 16.4939V21.6582H166.392V11.9801H168.36V13.2416C169.057 12.3349 170.014 11.8816 171.233 11.8816ZM177.525 11.7633C178.744 11.7633 179.721 12.1115 180.458 12.808C181.194 13.5044 181.563 14.5031 181.563 15.804V21.6582H179.594V20.5741C178.857 21.4414 177.806 21.875 176.44 21.875C175.409 21.875 174.579 21.6188 173.95 21.1063C173.32 20.5938 173.005 19.917 173.005 19.0761C173.005 18.2351 173.334 17.5649 173.99 17.0655C174.646 16.5662 175.53 16.3165 176.641 16.3165H179.433V15.6858C179.433 15.0156 179.246 14.5031 178.871 14.1483C178.509 13.7935 177.994 13.6161 177.324 13.6161C176.333 13.6161 175.423 14.0958 174.592 15.055L173.367 13.833C174.358 12.4532 175.744 11.7633 177.525 11.7633ZM176.882 20.2784C177.592 20.2784 178.195 20.0616 178.69 19.628C179.186 19.1943 179.433 18.649 179.433 17.992V17.8146H176.902C175.737 17.8146 175.155 18.2088 175.155 18.9972C175.155 19.4046 175.315 19.7199 175.637 19.9433C175.958 20.1667 176.373 20.2784 176.882 20.2784Z" fill="#27282C"/>
<path d="M189.646 15.3125C190.606 15.3125 191.416 15.6425 192.076 16.3025C192.766 16.9625 193.111 17.8025 193.111 18.8225C193.111 19.8125 192.781 20.6375 192.121 21.2975C191.461 21.9575 190.636 22.2875 189.646 22.2875C188.656 22.2875 187.816 21.9575 187.126 21.2975C186.436 20.6375 186.091 19.8125 186.091 18.8225C186.091 17.8325 186.436 17.0075 187.126 16.3475C187.816 15.6575 188.656 15.3125 189.646 15.3125Z" fill="#FED100"/>
</g>
<path d="M18.3542 0.830786L5.65357 2.69716C2.53119 3.15599 0.371961 6.05914 0.830798 9.18152L2.69717 21.8821C3.156 25.0045 6.05915 27.1638 9.18153 26.7049L21.8822 24.8385C25.0045 24.3797 27.1638 21.4766 26.7049 18.3542L24.8386 5.65356C24.3797 2.53118 21.4766 0.371949 18.3542 0.830786Z" fill="#FED100"/>
<path d="M7.46855 10.4948C8.38284 9.58966 9.4937 9.13708 10.8011 9.13708C12.1086 9.13708 13.2194 9.58966 14.1337 10.4948C15.048 11.3908 15.5051 12.4971 15.5051 13.8137C15.5051 15.1302 15.048 16.2411 14.1337 17.1462C13.2194 18.0422 12.1086 18.4902 10.8011 18.4902C9.48455 18.4902 8.3737 18.0422 7.46855 17.1462C6.56341 16.2411 6.11084 15.1302 6.11084 13.8137C6.11084 12.4971 6.56341 11.3908 7.46855 10.4948ZM10.8148 10.1245C9.7817 10.1245 8.92227 10.4765 8.23655 11.1805C7.55998 11.8754 7.2217 12.7485 7.2217 13.7999C7.2217 14.8605 7.55998 15.7428 8.23655 16.4468C8.92227 17.1508 9.7817 17.5028 10.8148 17.5028C11.8388 17.5028 12.6891 17.1508 13.3657 16.4468C14.0514 15.7428 14.3943 14.8605 14.3943 13.7999C14.3943 12.7577 14.0514 11.8845 13.3657 11.1805C12.6891 10.4765 11.8388 10.1245 10.8148 10.1245Z" fill="white"/>
<path d="M20.0857 13.3611C20.6525 13.5257 21.0914 13.8182 21.4023 14.2388C21.7131 14.6594 21.8685 15.1577 21.8685 15.7337C21.8685 16.5017 21.608 17.128 21.0868 17.6125C20.5748 18.0971 19.88 18.3394 19.0023 18.3394H15.7383H15.272V9.28796H16.3417H18.3851C19.1714 9.28796 19.7977 9.50282 20.264 9.93254C20.7303 10.3622 20.9634 10.9108 20.9634 11.5782C20.9634 12.3371 20.6708 12.9314 20.0857 13.3611ZM18.2754 10.248H16.3417V13.0594H18.2754C18.7874 13.0594 19.1805 12.9314 19.4548 12.6754C19.7291 12.4194 19.8663 12.0765 19.8663 11.6468C19.8663 11.2171 19.7291 10.8788 19.4548 10.632C19.1805 10.376 18.7874 10.248 18.2754 10.248ZM18.8925 17.3794C19.4868 17.3794 19.9485 17.2285 20.2777 16.9268C20.6068 16.616 20.7714 16.2091 20.7714 15.7063C20.7714 15.2034 20.6068 14.8011 20.2777 14.4994C19.9485 14.1885 19.4868 14.0331 18.8925 14.0331H16.3417V17.3794H18.8925Z" fill="white"/>
<defs>
<clipPath id="clip0">
<rect width="172.5" height="17.8125" fill="white" transform="translate(31.5625 5)"/>
</clipPath>
</defs>
</svg>
