<svg width="42" height="49" viewBox="0 0 42 49" fill="none" xmlns="http://www.w3.org/2000/svg">
<path d="M39.3214 11.0357L30.9643 2.67858C29.9732 1.68751 27.9911 0.857147 26.5714 0.857147H2.57143C1.15179 0.857147 0 2.00894 0 3.42858V46.2857C0 47.7054 1.15179 48.8571 2.57143 48.8571H38.5714C39.9911 48.8571 41.1429 47.7054 41.1429 46.2857V15.4286C41.1429 14.0089 40.3125 12.0268 39.3214 11.0357ZM27.4286 4.50001C27.8839 4.66072 28.3393 4.90179 28.5268 5.08929L36.9107 13.4732C37.0982 13.6607 37.3393 14.1161 37.5 14.5714H27.4286V4.50001ZM37.7143 45.4286H3.42857V4.28572H24V15.4286C24 16.8482 25.1518 18 26.5714 18H37.7143V45.4286ZM23.9464 29.5446C22.3661 28.2589 20.9732 25.9821 20.0357 23.1696C20.3571 21.3214 20.3839 19.7143 20.4107 18.0268C20.4107 17.7589 20.4107 17.4911 20.4107 17.2232C20.4107 17.1429 20.4107 17.0893 20.3839 17.0089C20.4375 16.9554 20.4643 16.875 20.4911 16.7946C20.6518 15.9375 20.5714 15.3482 20.25 14.9732C20.0357 14.7054 19.7143 14.5714 19.3125 14.5714H19.2857H18.7232C18.1875 14.5714 17.7857 14.9732 17.5982 15.6429C17.1161 17.4107 17.3839 20.4107 18.2411 23.3304C17.5982 25.5804 16.6607 27.9375 15.4554 30.3482C14.3839 32.5179 13.4196 34.2589 12.5893 35.625C12.5893 35.5982 12.5625 35.5446 12.5357 35.5179C12.4018 35.3036 12.1339 35.2232 11.9196 35.3571C8.59821 37.0982 7.15179 39.1607 6.88393 40.3929C6.80357 40.9286 6.91071 41.2232 7.04464 41.3571C7.09821 41.4107 7.125 41.4643 7.20536 41.4911L7.84821 41.8125C8.08929 41.9464 8.33036 42 8.59821 42C10.2054 42 12.3214 39.6964 15.0804 34.9821C17.9464 33.9911 21.8571 33.1607 25.5804 32.7589C27.8304 33.9375 30.4286 34.7143 32.1429 34.7143C33.5625 34.7143 33.9643 34.1786 34.0446 33.6964V33.6696C34.0714 33.6429 34.0982 33.5893 34.125 33.5625C34.4196 32.9196 34.2589 32.4375 34.0714 32.1696C33.4018 31.0714 31.125 30.8571 29.3304 30.8571C28.3661 30.8571 27.3214 30.9107 26.1964 31.0446C25.3661 30.5625 24.6161 30.0804 23.9464 29.5446ZM8.51786 40.5536C8.91964 39.6429 10.1786 37.875 12.1875 36.3214C10.4732 39.0268 9.32143 40.1786 8.51786 40.5536ZM19.1786 15.9107C19.1786 15.8839 19.2054 15.8571 19.2054 15.8036C19.3661 15.9911 19.5268 16.2857 19.5536 16.7679C19.5804 16.8214 19.5804 16.875 19.6071 16.9018C19.5536 16.9821 19.5268 17.0357 19.5 17.1161C19.4464 17.4375 19.3661 17.8125 19.3125 18.2679C19.2589 18.6161 19.2054 19.0179 19.125 19.4464C18.9107 17.9464 18.9107 16.6607 19.1786 15.9107ZM15.8571 33.6161C16.2589 32.8929 16.6607 32.1429 17.0625 31.3929C18.0268 29.4911 18.7768 27.75 19.2857 26.1161C20.1964 28.0714 21.375 29.6786 22.6875 30.8304C22.9286 31.0446 23.1964 31.2321 23.4643 31.4464C20.8393 31.9286 18.2143 32.6786 15.8571 33.6161ZM33.1607 33.1875C33.1875 33.2143 33.2143 33.2411 33.2143 33.2679C33.1071 33.2946 32.9732 33.2946 32.7321 33.2946C31.9286 33.2946 30.7232 33.0268 29.4107 32.5446C32.3304 32.5446 33.0268 33.0536 33.1607 33.1875Z" fill="#FEC557"/>
</svg>
